<svg width="16" height="12" viewBox="0 0 16 12" fill="none" xmlns="http://www.w3.org/2000/svg">
<path d="M5 6C6.45078 6 7.625 4.82578 7.625 3.375C7.625 1.92422 6.45078 0.75 5 0.75C3.54922 0.75 2.375 1.92422 2.375 3.375C2.375 4.82578 3.54922 6 5 6ZM6.8 6.75H6.60547C6.11797 6.98438 5.57656 7.125 5 7.125C4.42344 7.125 3.88437 6.98438 3.39453 6.75H3.2C1.70937 6.75 0.5 7.95938 0.5 9.45V10.125C0.5 10.7461 1.00391 11.25 1.625 11.25H8.375C8.99609 11.25 9.5 10.7461 9.5 10.125V9.45C9.5 7.95938 8.29062 6.75 6.8 6.75ZM11.75 6C12.9922 6 14 4.99219 14 3.75C14 2.50781 12.9922 1.5 11.75 1.5C10.5078 1.5 9.5 2.50781 9.5 3.75C9.5 4.99219 10.5078 6 11.75 6ZM12.875 6.75H12.7859C12.4602 6.8625 12.1156 6.9375 11.75 6.9375C11.3844 6.9375 11.0398 6.8625 10.7141 6.75H10.625C10.1469 6.75 9.70625 6.88828 9.31953 7.11094C9.89141 7.72734 10.25 8.54531 10.25 9.45V10.35C10.25 10.4016 10.2383 10.4508 10.2359 10.5H14.375C14.9961 10.5 15.5 9.99609 15.5 9.375C15.5 7.92422 14.3258 6.75 12.875 6.75Z" fill="#BCBCD0"/>
</svg>
